<?xml version="1.0" standalone="no"?>
<!DOCTYPE svg PUBLIC "-//W3C//DTD SVG 20010904//EN"
 "http://www.w3.org/TR/2001/REC-SVG-20010904/DTD/svg10.dtd">
<svg version="1.0" xmlns="http://www.w3.org/2000/svg"
 width="419.000000pt" height="73.000000pt" viewBox="0 0 419.000000 73.000000"
 preserveAspectRatio="xMidYMid meet">

<g transform="translate(0.000000,73.000000) scale(0.100000,-0.100000)"
fill="#000000" stroke="none">
<path d="M1390 427 c-18 -9 -25 -21 -25 -42 0 -26 6 -32 45 -46 25 -9 46 -23
48 -32 4 -20 -33 -28 -55 -11 -21 16 -43 18 -43 5 0 -20 33 -41 64 -41 46 0
68 20 64 55 -2 25 -10 32 -48 45 -26 9 -45 22 -45 30 0 18 45 26 55 10 4 -7
15 -10 24 -8 14 2 15 6 4 20 -18 24 -58 31 -88 15z"/>
<path d="M2170 345 c0 -67 3 -85 14 -85 9 0 16 12 18 33 3 29 6 32 43 37 37 5
40 8 43 38 5 47 -12 62 -69 62 l-49 0 0 -85z m74 59 c35 -13 12 -54 -30 -54
-9 0 -14 11 -14 30 0 30 11 37 44 24z"/>
<path d="M1520 344 c0 -68 11 -82 65 -82 l45 1 0 64 c0 49 -3 63 -15 63 -11 0
-15 -12 -15 -49 0 -32 -5 -51 -14 -54 -22 -9 -36 14 -36 60 0 32 -4 43 -15 43
-11 0 -15 -12 -15 -46z"/>
<path d="M1670 325 c0 -51 3 -65 15 -65 11 0 15 12 15 46 0 37 4 47 20 51 11
3 20 12 20 19 0 17 -12 18 -28 2 -9 -9 -12 -9 -12 0 0 7 -7 12 -15 12 -12 0
-15 -14 -15 -65z"/>
<path d="M1753 378 c3 -7 14 -37 23 -65 12 -37 23 -53 35 -53 12 0 23 16 35
53 9 28 19 58 22 65 2 6 -3 12 -12 12 -10 0 -20 -15 -27 -45 -13 -51 -19 -50
-34 3 -7 23 -18 38 -29 40 -12 3 -16 -1 -13 -10z"/>
<path d="M1906 374 c-23 -23 -21 -91 3 -104 27 -14 54 -13 77 4 24 18 11 32
-18 19 -28 -12 -48 -7 -48 13 0 10 12 14 40 14 32 0 40 4 40 18 0 43 -63 67
-94 36z m45 -32 c-28 -4 -40 6 -21 18 9 6 20 4 29 -3 12 -10 11 -13 -8 -15z"/>
<path d="M2022 378 c2 -7 12 -38 22 -70 19 -55 19 -57 1 -75 -18 -17 -18 -18
-1 -21 10 -2 23 1 29 7 13 13 69 163 62 169 -12 12 -33 -10 -39 -42 -9 -47
-20 -46 -35 4 -7 24 -18 40 -27 40 -9 0 -14 -6 -12 -12z"/>
<path d="M2320 324 c0 -50 3 -64 15 -64 11 0 15 11 15 40 0 29 5 43 20 52 30
19 24 34 -15 35 l-35 1 0 -64z"/>
<path d="M2427 372 c-22 -25 -21 -75 1 -95 24 -21 76 -22 93 -1 7 9 13 31 13
49 0 18 -6 40 -13 49 -18 22 -74 20 -94 -2z m73 -47 c0 -34 -24 -50 -44 -30
-9 9 -16 23 -16 30 0 7 7 21 16 30 20 20 44 4 44 -30z"/>
</g>
</svg>
